<svg width="22" height="22" viewBox="0 0 22 22" fill="none" xmlns="http://www.w3.org/2000/svg">
<path d="M10.9993 20.1673V11.9166M18.333 11.9166V15.4644C18.3333 15.8104 18.2386 16.1499 18.0592 16.4458C17.8797 16.7416 17.6224 16.9825 17.3154 17.1421L11.8152 19.9657C11.5632 20.0966 11.2833 20.165 10.9993 20.165C10.7153 20.165 10.4355 20.0966 10.1835 19.9657L4.68324 17.1421C4.37623 16.9825 4.11895 16.7416 3.9395 16.4458C3.76006 16.1499 3.66535 15.8104 3.6657 15.4644V11.9166M13.9049 2.02526C14.1332 1.8976 14.3904 1.83057 14.652 1.83057C14.9135 1.83057 15.1708 1.8976 15.3991 2.02526L19.2492 4.18879C19.5219 4.34299 19.7488 4.56682 19.9066 4.83741C20.0644 5.10801 20.1476 5.41566 20.1476 5.72893C20.1476 6.04219 20.0644 6.34985 19.9066 6.62044C19.7488 6.89103 19.5219 7.11487 19.2492 7.26907L8.08378 13.558C7.85479 13.6886 7.59571 13.7573 7.33209 13.7573C7.06846 13.7573 6.80938 13.6886 6.58039 13.558L2.74857 11.3944C2.47589 11.2402 2.24905 11.0164 2.09121 10.7458C1.93337 10.4752 1.8502 10.1676 1.8502 9.8543C1.8502 9.54103 1.93337 9.23338 2.09121 8.96279C2.24905 8.69219 2.47589 8.46836 2.74857 8.31416L13.9049 2.02526ZM19.2492 11.3943C19.5219 11.2401 19.7488 11.0162 19.9066 10.7456C20.0644 10.4751 20.1476 10.1674 20.1476 9.85413C20.1476 9.54087 20.0644 9.23322 19.9066 8.96262C19.7488 8.69203 19.5219 8.46819 19.2492 8.314L8.09295 2.01593C7.8655 1.88567 7.60795 1.81714 7.34584 1.81714C7.08373 1.81714 6.82618 1.88567 6.59872 2.01593L2.74857 4.18863C2.47589 4.34282 2.24905 4.56666 2.09121 4.83725C1.93337 5.10784 1.8502 5.4155 1.8502 5.72876C1.8502 6.04203 1.93337 6.34968 2.09121 6.62028C2.24905 6.89087 2.47589 7.1147 2.74857 7.2689L13.914 13.5578C14.1413 13.6884 14.399 13.7572 14.6611 13.7572C14.9233 13.7572 15.1809 13.6884 15.4082 13.5578L19.2492 11.3943Z" stroke="#218B55" stroke-width="1.7" stroke-linecap="round"/>
</svg>
